# xmcd
#
# Track frame offsets:
#	150
#	10281
#	20648
#	32859
#	48986
#	59534
#	75282
#	87160
#	98615
#	109361
#	119057
#	130202
#
# Disc length: 1907 seconds
#
# Revision: 1
# Processed by: cddbd v1.4PL0 Copyright (c) Steve Scherf et al.
# Submitted via: audiograbber 1.80.04
#
DISCID=9a07710c
DTITLE=Riders In the Sky - Pair of Kings, A
DYEAR=2000
DGENRE=Country
TTITLE0=We're Burnin' Moonlight
TTITLE1=Clarinet Polka
TTITLE2=You Stole My Wife You Horsethief
TTITLE3=How High the Moon
TTITLE4=Texas Sand
TTITLE5=Celtic Medley (Annie Laurie/Scotland the Brave/Haste To the Wedding)
TTITLE6=I'm an Old Cowhand
TTITLE7=Jessie Polka
TTITLE8=Never Go To Church On Sunday
TTITLE9=Bunkhouse Race, The
TTITLE10=Don't Sweetheart Me
TTITLE11=Katherine's Waltz
EXTD=
EXTT0=
EXTT1=
EXTT2=
EXTT3=
EXTT4=
EXTT5=
EXTT6=
EXTT7=
EXTT8=
EXTT9=
EXTT10=
EXTT11=
PLAYORDER=
